<?xml version="1.0" standalone="no"?>
<!DOCTYPE svg PUBLIC "-//W3C//DTD SVG 20010904//EN"
 "http://www.w3.org/TR/2001/REC-SVG-20010904/DTD/svg10.dtd">
<svg version="1.0" xmlns="http://www.w3.org/2000/svg"
 width="2646.000000pt" height="390.000000pt" viewBox="0 0 2646.000000 390.000000"
 preserveAspectRatio="xMidYMid meet">
<metadata>
Created by potrace 1.15, written by Peter Selinger 2001-2017
</metadata>
<g transform="translate(0.000000,390.000000) scale(0.100000,-0.100000)"
fill="#000000" stroke="none">
<path d="M1924 3886 c-8 -20 -8 -104 1 -478 l8 -326 -129 -6 c-128 -6 -767
-21 -1399 -32 -194 -3 -334 -9 -340 -15 -6 -6 -13 -126 -17 -287 -54 -2011
-51 -1855 -33 -1868 13 -10 403 -14 1693 -19 4239 -15 6956 -25 7848 -30 l971
-6 6 -126 c7 -138 12 -149 62 -136 38 9 187 8 520 -6 579 -25 1121 -47 1465
-60 151 -5 322 -13 380 -16 58 -3 220 -10 360 -16 140 -5 363 -14 495 -20 247
-10 546 -22 975 -40 646 -26 1268 -52 1890 -79 236 -10 515 -22 950 -39 129
-5 348 -14 485 -20 138 -6 365 -15 505 -20 140 -6 302 -13 360 -16 58 -3 227
-10 375 -16 149 -6 376 -15 505 -20 129 -5 348 -14 485 -20 332 -13 973 -40
1425 -59 135 -5 349 -14 475 -20 385 -15 718 -29 960 -40 127 -6 334 -14 460
-19 127 -5 369 -14 539 -21 258 -10 310 -10 321 1 9 10 17 77 25 214 6 110 15
268 20 350 5 83 12 158 15 168 7 16 60 17 925 17 896 0 917 0 935 19 16 19 17
56 7 683 -5 365 -13 671 -16 680 -6 12 -25 18 -69 22 -34 3 -91 9 -127 15 -36
5 -99 14 -140 20 -196 26 -312 43 -395 56 -49 7 -110 16 -135 20 -25 3 -76 10
-115 16 -38 6 -97 14 -130 19 -33 5 -94 14 -135 20 -41 6 -102 15 -135 20
-152 22 -214 31 -270 40 -33 5 -91 14 -130 20 -38 6 -99 14 -135 20 -36 5 -96
14 -135 19 -84 11 -341 47 -445 61 -41 6 -97 15 -125 20 -27 5 -68 12 -90 15
-59 7 -255 36 -380 55 -33 5 -96 14 -140 20 -161 23 -211 30 -265 39 -30 5
-89 14 -130 20 -41 5 -172 24 -290 40 -118 17 -246 35 -285 40 -38 6 -88 13
-110 17 -92 15 -248 38 -360 54 -44 6 -105 15 -135 20 -52 8 -140 21 -275 40
-85 12 -137 19 -240 35 -49 8 -142 21 -205 30 -63 8 -144 20 -180 25 -36 6
-101 15 -145 21 -44 6 -105 15 -135 19 -61 10 -189 28 -265 38 l-50 7 2 215
c1 118 4 281 8 361 5 99 3 153 -4 167 -11 21 -13 21 -1838 27 -2437 8 -6112
24 -6965 30 l-687 6 -18 -28 c-16 -25 -18 -61 -21 -399 l-3 -373 -42 -6 c-64
-9 -1764 -1 -1774 8 -4 5 -9 176 -11 380 -2 224 -7 376 -13 383 -8 9 -238 14
-927 18 -858 5 -1553 10 -4427 35 -1562 14 -1485 14 -1491 -3z m986 -450 l0
-375 -42 -3 c-41 -3 -43 -5 -46 -37 -2 -20 2 -37 10 -42 21 -14 222 -11 236 3
28 28 7 78 -34 78 -21 0 -21 3 -26 191 -2 106 -2 275 0 377 l5 185 271 -7
c149 -3 346 -9 439 -12 l167 -7 -2 -361 -3 -361 -270 -5 -270 -5 0 -40 0 -40
582 -3 583 -2 6 26 c15 57 10 59 -267 64 l-254 5 -8 75 c-8 75 -5 635 4 644 5
5 289 8 632 7 l207 -1 -2 -362 -3 -363 -30 -5 c-27 -5 -30 -9 -30 -45 l0 -40
114 -3 c120 -3 141 3 141 42 0 31 -19 46 -55 46 l-32 0 -6 190 c-4 104 -4 269
0 366 l6 176 406 -5 c223 -3 421 -9 439 -13 l33 -6 -5 -267 c-3 -146 -9 -304
-13 -351 l-8 -85 -260 -5 -260 -5 0 -40 0 -40 582 -3 583 -2 6 26 c15 58 11
59 -276 64 l-264 5 -6 25 c-7 27 6 596 15 646 l5 31 211 7 c115 4 309 4 430 0
l219 -7 -2 -351 -3 -351 -40 -5 c-39 -5 -40 -6 -40 -45 l0 -40 114 -3 c120 -3
141 3 141 42 0 28 -18 46 -46 46 -19 0 -22 7 -28 61 -8 79 -8 542 0 602 l6 45
57 4 c82 5 1538 -11 1659 -18 l102 -6 -2 -351 -3 -352 -50 -5 c-49 -5 -50 -5
-53 -42 -3 -33 0 -38 22 -44 14 -3 47 -3 73 1 88 14 1972 17 2035 4 65 -13 88
-4 88 36 0 28 -17 42 -55 47 l-30 3 -6 110 c-9 150 -10 512 -3 567 l6 45 243
7 c133 4 330 4 438 0 l197 -7 0 -358 c0 -198 -1 -360 -2 -361 -2 -1 -128 -5
-282 -8 -267 -5 -279 -6 -286 -25 -4 -11 -4 -30 1 -42 l8 -23 604 0 c456 0
606 3 615 12 16 16 15 53 -1 67 -9 7 -105 12 -282 13 l-269 3 -7 25 c-9 31
-11 626 -3 667 l6 30 210 7 c115 4 308 4 429 0 l219 -7 -2 -361 -3 -361 -39
-5 c-43 -6 -59 -29 -45 -67 8 -22 13 -23 132 -23 129 0 147 5 147 45 0 30 -19
45 -56 45 -24 0 -33 5 -38 23 -8 29 -8 655 0 685 l6 22 437 -2 436 -3 -1 -250
c0 -278 -11 -456 -28 -467 -6 -4 -122 -8 -258 -8 -242 0 -248 0 -259 -21 -8
-16 -8 -28 0 -45 l11 -24 489 0 c490 0 490 0 502 21 8 16 8 28 0 45 -11 24
-11 24 -191 24 l-180 0 -6 27 c-6 24 -2 190 15 558 l6 140 385 -4 c212 -2 405
-7 430 -10 l45 -6 3 -340 c1 -187 0 -350 -3 -362 -4 -18 -12 -23 -39 -23 -41
0 -60 -21 -52 -55 8 -31 36 -39 113 -31 149 13 173 22 173 60 0 31 -19 46 -56
46 -24 0 -33 5 -38 23 -10 37 -7 661 4 677 8 13 60 16 342 19 183 1 374 0 426
-4 l94 -7 -6 -261 c-4 -144 -9 -305 -12 -359 -6 -113 -3 -110 -120 -97 -44 4
-152 8 -241 8 -156 1 -163 0 -174 -20 -8 -16 -8 -28 0 -45 l10 -23 268 -5
c147 -3 282 -6 298 -7 17 -1 50 -2 75 -1 25 1 147 -1 273 -4 242 -7 257 -4
257 40 0 44 -11 46 -275 46 -194 0 -255 3 -269 13 -18 13 -18 28 -12 223 3
115 9 273 12 351 l7 141 101 7 c56 4 251 5 434 4 282 -3 334 -6 342 -19 11
-16 14 -660 4 -697 -6 -20 -13 -23 -60 -23 -42 0 -55 -4 -64 -19 -10 -21 -4
-51 14 -63 19 -13 181 -9 194 4 9 9 12 114 12 409 l0 397 84 7 c92 7 2455 -12
2574 -21 l72 -6 0 -339 c0 -186 -1 -340 -2 -341 -2 -2 -565 -5 -1253 -8
l-1250 -5 0 -40 0 -40 1269 -3 1270 -2 27 26 c18 18 29 39 31 63 l3 36 142 3
c131 2 143 4 153 23 6 11 10 30 8 42 -4 28 -45 36 -190 36 l-107 1 -6 43 c-9
59 -2 494 8 504 12 11 626 16 668 6 l34 -9 3 -105 c4 -140 -14 -407 -29 -425
-6 -8 -26 -14 -43 -14 -52 0 -74 -11 -81 -37 -10 -41 11 -55 74 -51 l56 3 5
-50 5 -50 45 -8 c25 -4 79 -12 120 -18 101 -14 182 -26 260 -39 100 -16 233
-36 400 -59 132 -18 443 -62 505 -72 33 -5 94 -14 135 -20 41 -6 103 -15 138
-20 34 -5 90 -13 125 -18 58 -9 143 -21 282 -41 65 -9 166 -25 260 -40 33 -5
92 -14 130 -19 39 -6 102 -15 140 -20 39 -6 122 -17 185 -26 63 -9 147 -20
185 -26 39 -5 102 -14 140 -20 39 -5 97 -14 130 -19 59 -10 136 -21 265 -40
36 -5 94 -14 130 -19 36 -5 99 -14 140 -20 41 -6 104 -15 140 -21 36 -5 97
-14 135 -19 39 -6 99 -15 135 -21 36 -5 115 -17 175 -25 200 -28 259 -36 330
-47 39 -5 97 -13 130 -18 161 -23 215 -31 270 -41 33 -5 89 -14 125 -19 36 -5
94 -14 130 -19 36 -5 99 -14 140 -20 41 -6 91 -13 110 -16 19 -3 67 -10 105
-15 39 -6 133 -19 210 -31 209 -31 262 -38 349 -49 43 -5 84 -14 91 -20 18
-15 24 -156 31 -736 l6 -472 -164 -7 c-217 -9 -1604 -2 -1615 8 -10 11 -10
221 1 562 7 231 6 273 -7 289 -12 16 -33 21 -123 27 -60 4 -178 13 -263 19
-161 13 -171 11 -171 -30 0 -42 36 -49 315 -66 55 -3 115 -10 133 -16 l34 -10
-6 -297 c-9 -478 -37 -1149 -52 -1220 l-7 -34 -166 7 c-91 3 -255 9 -364 12
-236 8 -222 -1 -213 143 6 95 18 336 36 726 5 110 14 299 21 420 16 333 16
371 -6 395 -18 20 -28 20 -279 18 l-261 -3 -3 -30 c-6 -52 9 -55 251 -55 l220
0 -7 -216 c-4 -118 -10 -222 -13 -231 -6 -14 -27 -15 -197 -9 -311 11 -558 24
-599 32 l-39 7 6 166 c4 91 12 194 18 229 11 57 14 63 32 57 88 -27 130 -13
124 42 -3 27 -6 28 -73 36 -38 5 -90 9 -115 10 l-45 2 -7 -55 c-4 -30 -15
-205 -23 -389 -18 -359 -19 -350 32 -351 30 0 43 28 43 94 l0 56 68 0 c102 0
565 -20 671 -29 100 -9 115 -18 106 -61 -6 -25 -17 -240 -35 -660 -6 -124 -13
-246 -16 -272 l-6 -48 -127 0 c-249 1 -681 19 -702 31 -20 10 -21 16 -15 97 4
48 11 161 16 252 5 91 12 189 16 218 3 29 3 64 0 78 -6 22 -11 25 -44 22 l-37
-3 -7 -100 c-4 -55 -11 -181 -16 -280 -6 -99 -14 -201 -18 -227 -6 -45 -9 -48
-42 -54 -19 -4 -80 -4 -136 0 -56 4 -216 11 -356 17 -140 5 -365 14 -500 20
-135 5 -346 14 -470 19 -124 5 -333 14 -465 20 -132 5 -350 14 -485 20 -135 6
-344 15 -465 20 -121 6 -285 13 -364 16 l-144 6 7 196 c3 108 10 328 15 487 5
160 15 449 21 643 8 244 9 357 2 364 -12 12 -59 14 -70 3 -4 -3 -8 -93 -10
-198 -2 -124 -8 -197 -15 -206 -9 -10 -33 -12 -107 -7 -52 3 -207 10 -345 16
-137 6 -270 14 -295 18 l-45 7 1 110 c1 61 3 157 5 215 l4 105 -290 6 c-159 4
-392 10 -517 14 -244 9 -258 7 -258 -41 0 -12 6 -26 13 -31 6 -4 161 -11 342
-16 182 -4 395 -11 475 -15 l145 -7 -2 -75 c0 -41 -6 -163 -12 -270 -7 -107
-16 -271 -22 -365 -5 -93 -13 -240 -18 -325 -6 -85 -14 -240 -20 -345 -5 -104
-13 -203 -17 -219 l-7 -28 -71 6 c-39 3 -192 11 -341 16 -148 5 -315 12 -370
15 -55 3 -221 11 -370 16 -148 6 -376 15 -505 20 -129 5 -347 14 -485 20 -274
11 -569 23 -945 39 -135 6 -335 14 -445 18 l-200 7 -3 65 c-2 36 4 214 12 395
9 182 20 443 26 580 14 326 30 568 38 577 4 4 45 10 92 15 l85 8 0 35 c0 46
-9 48 -236 49 -204 1 -213 -1 -207 -56 3 -27 5 -28 87 -37 l83 -8 -6 -127 c-4
-69 -11 -220 -16 -336 -26 -613 -48 -1051 -56 -1103 l-6 -44 -222 6 c-121 2
-329 10 -461 15 -132 6 -343 15 -470 21 -126 5 -345 14 -485 19 -140 5 -302
12 -360 15 -58 4 -285 13 -505 21 -220 9 -483 20 -585 25 -102 6 -244 10 -315
11 -72 0 -179 6 -240 12 l-110 12 -2 165 c-1 91 2 239 8 330 5 91 16 318 24
505 20 433 33 605 48 623 9 11 29 13 92 8 44 -4 170 -11 280 -17 194 -9 385
-19 780 -39 105 -6 225 -13 268 -16 85 -6 107 2 107 41 0 12 -6 27 -12 33 -7
5 -71 13 -143 16 -452 23 -690 35 -1100 56 -104 6 -225 13 -269 16 -52 4 -82
2 -90 -6 -6 -6 -14 -67 -18 -143 -3 -73 -11 -226 -17 -342 -6 -115 -15 -295
-21 -400 -5 -104 -13 -260 -16 -345 -3 -85 -10 -172 -15 -192 -9 -36 -10 -37
-72 -43 -90 -9 -1664 -2 -1674 8 -7 8 -13 130 -31 702 l-7 240 -32 3 c-49 5
-55 -17 -49 -166 3 -70 9 -273 12 -451 4 -261 3 -326 -8 -332 -15 -10 -868
-12 -892 -3 -14 5 -16 51 -15 423 0 229 6 542 12 696 l12 280 80 7 c96 8 617
28 733 28 l82 0 0 -119 c0 -130 6 -145 57 -139 l28 3 3 159 c3 198 2 200 -103
192 -38 -4 -187 -11 -330 -16 -556 -21 -634 -25 -644 -35 -6 -6 -12 -238 -15
-600 -3 -324 -9 -654 -12 -732 l-6 -142 -33 -7 c-18 -3 -149 -3 -291 0 -143 3
-954 8 -1804 11 -850 3 -1554 8 -1566 10 -20 4 -21 13 -30 247 -5 134 -9 443
-9 688 l0 445 40 5 c35 4 40 9 43 33 5 45 -13 57 -82 57 -53 0 -66 -4 -85 -24
-22 -24 -23 -28 -17 -168 3 -79 9 -397 12 -707 5 -470 4 -565 -7 -572 -16 -10
-1470 -12 -1672 -2 l-137 6 0 733 c0 575 -3 735 -12 741 -7 4 -188 11 -403 15
-385 7 -609 19 -652 33 -29 9 -63 -25 -63 -64 0 -17 3 -32 8 -34 4 -3 219 -10
477 -16 259 -6 487 -14 508 -17 l37 -6 0 -694 0 -694 -82 -1 c-46 -1 -87 0
-93 2 -5 2 -381 5 -835 8 l-825 6 0 205 c0 113 6 394 13 625 7 231 16 564 22
741 5 177 12 344 16 372 l6 50 147 6 c311 13 544 18 577 12 33 -7 33 -7 27
-51 -5 -41 -4 -45 21 -54 34 -14 55 -5 62 28 3 14 10 38 15 52 l10 26 217 8
c297 11 1026 11 1199 1 111 -7 146 -6 158 4 18 15 20 54 3 68 -8 6 -100 13
-213 16 -110 3 -232 9 -272 12 l-71 6 -6 86 c-3 48 -9 212 -12 365 l-6 277
451 0 451 0 0 -374z m15935 -1926 c116 -5 241 -13 279 -16 l68 -6 -6 -291 c-8
-387 -24 -813 -32 -861 l-6 -38 -47 6 c-25 4 -158 11 -296 16 -137 6 -301 13
-364 16 l-114 7 6 146 c10 221 26 511 37 656 6 72 10 177 10 235 0 58 3 115 7
128 7 27 -47 26 458 2z"/>
<path d="M7220 3061 c-20 -5 -26 -14 -28 -42 -2 -21 3 -40 10 -46 9 -7 199
-12 572 -14 517 -4 560 -3 570 13 7 11 7 26 0 45 l-9 28 -530 5 c-292 3 -537
8 -545 12 -8 3 -26 3 -40 -1z"/>
<path d="M2434 2394 c-14 -55 -28 -54 616 -65 621 -10 610 -11 610 31 0 44 2
43 -442 51 -233 4 -503 8 -600 8 l-178 1 -6 -26z"/>
<path d="M4230 2381 c-5 -11 -7 -27 -4 -35 6 -15 160 -16 1633 -14 l1626 3 0
30 0 30 -1622 3 c-1594 2 -1622 2 -1633 -17z"/>
<path d="M12463 2284 c-3 -9 -2 -24 4 -33 12 -19 52 -23 468 -46 160 -8 360
-20 445 -25 385 -24 513 -30 625 -33 l120 -2 3 27 c4 35 10 34 -263 47 -121 7
-287 16 -370 21 -82 5 -233 14 -335 20 -386 22 -528 30 -608 36 -71 4 -83 3
-89 -12z"/>
<path d="M14987 2194 c-4 -4 -7 -17 -7 -30 0 -27 -34 -24 680 -59 482 -23 599
-30 985 -55 83 -5 223 -13 313 -16 l162 -7 0 27 c0 15 -6 28 -12 30 -7 2 -114
9 -238 15 -124 7 -281 16 -350 21 -69 5 -224 14 -345 20 -257 12 -531 26 -770
40 -340 19 -410 21 -418 14z"/>
<path d="M19550 1947 c0 -38 26 -47 141 -47 57 0 198 -4 314 -10 115 -5 338
-14 495 -20 157 -6 391 -15 520 -20 129 -5 422 -17 650 -25 228 -9 505 -20
615 -24 232 -11 255 -8 255 24 0 37 116 28 -975 70 -612 24 -873 34 -1395 55
-129 5 -322 13 -427 16 l-193 7 0 -26z"/>
</g>
</svg>
