<?xml version="1.0" encoding="UTF-8" standalone="no"?>
<svg
   xmlns:dc="http://purl.org/dc/elements/1.1/"
   xmlns:cc="http://creativecommons.org/ns#"
   xmlns:rdf="http://www.w3.org/1999/02/22-rdf-syntax-ns#"
   xmlns:svg="http://www.w3.org/2000/svg"
   xmlns="http://www.w3.org/2000/svg"
   viewBox="0 0 1382.4 241.92"
   height="241.92"
   width="1382.4"
   id="svg815"
   version="1.1">
  <metadata
     id="metadata821">
    <rdf:RDF>
      <cc:Work
         rdf:about="">
        <dc:format>image/svg+xml</dc:format>
        <dc:type
           rdf:resource="http://purl.org/dc/dcmitype/StillImage" />
        <dc:title></dc:title>
      </cc:Work>
    </rdf:RDF>
  </metadata>
  <defs
     id="defs819" />
  <path
     id="path827"
     d="m 1226.4,220.76379 c -6.468,-0.19689 -19.212,-0.59699 -28.32,-0.88911 -9.108,-0.29211 -23.472,-0.74124 -31.92,-0.99804 -8.448,-0.2568 -22.38,-0.68566 -30.96,-0.95302 -8.58,-0.26736 -22.62,-0.69938 -31.2,-0.96004 -8.58,-0.26066 -22.62,-0.69266 -31.2,-0.96 -8.58,-0.26734 -22.62,-0.69933 -31.2,-0.95999 -8.58,-0.26067 -22.728,-0.69612 -31.44,-0.96768 -22.2183,-0.69256 -42.62808,-1.31302 -63.6,-1.93345 -12.57422,-0.372 -18.15758,-0.70282 -18.52286,-1.09749 -0.37172,-0.40167 -0.40604,-4.65774 -0.11871,-14.72497 0.22229,-7.788 0.30226,-14.43034 0.17765,-14.76075 -0.18115,-0.48042 -91.96416,-0.6003 -458.23982,-0.5985 -251.90729,0.001 -458.083237,-0.0677 -458.168762,-0.15325 -0.108163,-0.10816 -0.266775,-99.891016 -0.173529,-109.167496 0.0091,-0.90438 16.602876,-0.86177 16.950266,0.0435 0.565099,1.47262 -0.450033,1.72939 -7.36404,1.86268 L 14.16,73.680004 V 126 178.32 h 22.08 22.08 l 0.107746,-37.6441 c 0.110409,-38.57373 0.120566,-38.77864 1.888728,-38.10014 0.503966,0.1934 0.643526,2.06077 0.643526,8.61066 0,6.28146 0.150499,8.42146 0.604512,8.59568 1.03153,0.39584 46.812268,-0.47835 47.235748,-0.90197 0.21986,-0.21993 0.43143,-3.85883 0.47017,-8.08643 0.0394,-4.29549 0.27867,-7.8948 0.54245,-8.15858 0.30936,-0.30936 1.11213,-0.29429 2.32957,0.0437 1.11647,0.31 7.14024,0.51684 15.09894,0.51845 7.28276,10e-4 21.69106,0.14561 32.01843,0.3203 18.77874,0.31766 19.85304,0.4286 18.89577,1.95149 -0.21904,0.34847 -10.28872,0.36675 -32.9149,0.0598 -23.30734,-0.31622 -32.74772,-0.29409 -33.12,0.0776 -0.33605,0.33556 -0.63145,5.57539 -0.83303,14.77669 -0.17178,7.84123 -0.55753,23.93087 -0.85721,35.75476 -0.29968,11.82389 -0.41638,21.70589 -0.25933,21.96 0.1809,0.29272 26.81552,0.46202 72.68585,0.46202 65.57683,0 72.42778,-0.0716 72.69167,-0.75926 0.16025,-0.41757 0.29136,-5.90019 0.29136,-12.18358 v -11.42435 l -3.48,-0.27847 c -1.914,-0.15316 -9.636,-0.34053 -17.16,-0.41639 l -13.68,-0.13788 -0.1394,3.67609 c -0.0936,2.46697 -0.34468,3.75487 -0.76353,3.91559 -1.24928,0.4794 -1.69358,-0.49107 -1.8339,-4.00569 L 218.64,153.36 l -1.75882,-0.14652 c -1.72493,-0.1437 -2.54232,-0.92863 -1.91677,-1.84065 0.20047,-0.29228 7.64927,-0.30891 20.4207,-0.0455 11.05781,0.22799 20.26938,0.23863 20.47018,0.0237 0.20079,-0.21499 0.51847,-5.06136 0.70594,-10.76972 l 0.34087,-10.37882 -3.53105,-0.28371 C 251.42897,129.7626 243.468,129.57306 235.68,129.49746 l -14.16,-0.13746 -0.1394,3.67609 c -0.0936,2.46697 -0.34468,3.75487 -0.76353,3.91559 -1.24928,0.4794 -1.69358,-0.49107 -1.8339,-4.00569 L 218.64,129.36 l -2.23808,-0.14459 c -2.15287,-0.13908 -3.07944,-0.85048 -2.39751,-1.84076 0.19967,-0.28995 8.04686,-0.30603 21.36288,-0.0438 11.57602,0.22799 21.11625,0.34558 21.20052,0.26131 0.0843,-0.0843 0.22499,-5.12099 0.31271,-11.19271 L 257.04,105.36 223.61011,105.23675 c -34.57967,-0.12749 -34.70559,-0.13479 -33.58486,-1.94817 0.40682,-0.65823 69.07217,-0.86316 69.72723,-0.2081 0.22662,0.22662 0.21181,1.57936 -0.0331,3.02474 -0.24369,1.43813 -0.56246,9.09478 -0.70838,17.01478 -0.14593,7.92 -0.49648,23.45181 -0.77902,34.51514 -0.28253,11.06332 -0.33078,20.29805 -0.10722,20.52161 0.22357,0.22357 31.82296,0.35176 70.22087,0.28487 L 398.16,178.32 l 0.10012,-37.62012 c 0.0551,-20.69106 0.18574,-37.70574 0.2904,-37.8104 0.10465,-0.10465 10.3196,-0.29599 22.69988,-0.4252 12.38028,-0.12921 23.76827,-0.35315 25.30665,-0.49763 4.16701,-0.39137 4.16295,-0.39937 4.16295,8.20077 0,5.68552 -0.14436,7.38527 -0.64353,7.57682 -1.45354,0.55777 -1.72791,-0.45662 -1.86183,-6.88353 L 448.08,104.4 l -21.70524,0.19316 c -11.93789,0.10624 -22.52189,0.32591 -23.52,0.48815 L 401.04,105.37629 V 141.84814 178.32 h 23.52 23.52 l 0.12445,-23.83035 c 0.12829,-24.56515 0.17045,-25.08235 1.9545,-23.97974 0.40105,0.24786 0.58594,6.82808 0.67647,24.07559 l 0.12458,23.7345 45.09014,0.12248 c 35.75482,0.0971 45.16935,-0.002 45.47266,-0.48 0.21038,-0.33137 0.38582,-3.11139 0.38986,-6.17784 0.005,-3.06645 0.21393,-9.97845 0.46641,-15.36 0.44563,-9.49739 1.17317,-28.8825 1.72695,-46.01398 0.26947,-8.33645 0.50121,-9.35869 1.99209,-8.78659 0.48279,0.18526 0.62635,0.99581 0.52354,2.95559 L 546.48,107.28 l 1.51915,0.14736 c 2.59037,0.25128 2.52687,2.27328 -0.0807,2.56933 L 546.48,110.16 l -0.32962,6.24 c -0.18129,3.432 -0.55838,12.504 -0.83803,20.16 -0.2796,7.656 -0.73536,19.94793 -1.0128,27.31539 -0.27744,7.36746 -0.39307,13.68546 -0.25704,14.04 0.20549,0.53546 12.27691,0.64461 71.2933,0.64461 h 71.0459 l 0.21855,-1.08 c 0.12019,-0.594 0.34483,-5.4 0.49915,-10.68 0.15432,-5.28 0.48403,-14.784 0.73262,-21.12 1.28803,-32.82497 1.47543,-39.76454 1.08442,-40.15557 -0.23208,-0.23204 -5.69919,-0.36397 -12.14919,-0.29316 L 665.04,105.36 l -0.1489,2.62952 c -0.14995,2.64853 -0.66201,3.48965 -1.84756,3.03472 -0.81418,-0.31243 -0.8784,-5.34359 -0.0903,-7.07328 l 0.5532,-1.21421 25.0068,-0.12837 c 13.75373,-0.0706 25.26965,-0.054 25.59096,0.0369 0.40075,0.11338 0.62688,1.7717 0.72,5.28 l 0.1358,5.11472 21.36,-0.13498 c 11.748,-0.0742 22.68149,-0.25037 24.29659,-0.39141 2.25754,-0.19714 2.9965,-0.10036 3.1956,0.41851 0.14242,0.37121 0.11213,0.91256 -0.0673,1.20298 -0.43579,0.70509 -49.96282,1.64576 -50.808,0.965 -0.36562,-0.29448 -0.63423,-2.19881 -0.72,-5.1049 L 712.08,105.36 l -9.93792,-0.12967 c -9.10003,-0.11874 -9.97478,-0.058 -10.37458,0.72 -0.24014,0.46732 -0.57624,5.49367 -0.74683,11.16967 -0.17064,5.676 -0.52214,15.612 -0.78115,22.08 -1.19741,29.90256 -1.43515,38.59639 -1.06536,38.96615 0.21922,0.21923 21.55474,0.34354 47.41224,0.27623 L 783.6,178.32 l 0.32155,-7.68 c 0.17688,-4.224 0.55354,-12.648 0.83703,-18.72 1.22937,-26.32897 1.55409,-35.36734 1.28054,-35.64089 -0.16056,-0.16053 -2.11205,-0.38741 -4.33666,-0.50417 -3.88747,-0.20404 -4.98432,-0.68462 -4.17806,-1.83052 0.44386,-0.63084 19.41466,0.22392 19.82842,0.89341 0.86644,1.40192 -0.13853,1.73557 -4.39661,1.4597 l -4.2469,-0.27514 -0.24912,1.62881 c -0.13704,0.89584 -0.36888,5.1928 -0.51518,9.5488 -0.14635,4.356 -0.48355,12.564 -0.74938,18.24 -1.07745,23.00705 -1.40688,32.2982 -1.15939,32.69864 0.3144,0.50871 141.32995,0.56231 142.09344,0.054 0.3481,-0.23173 0.63202,-4.38494 0.82814,-12.11265 0.16416,-6.468 0.52906,-18.65412 0.81087,-27.08027 0.28185,-8.42615 0.40195,-15.60815 0.26693,-15.96 -0.16925,-0.44112 -1.20288,-0.63973 -3.32919,-0.63973 -3.05889,0 -3.80275,-0.4038 -3.31574,-1.8 0.14136,-0.40524 1.33373,-0.6 3.67329,-0.6 1.90522,0 3.66922,-0.17836 3.92002,-0.39636 0.2508,-0.21799 3.264,-0.22953 6.696,-0.0256 3.432,0.20388 9.912,0.59288 14.4,0.86443 4.488,0.27156 12.48,0.74293 17.76,1.04751 9.5873,0.55305 10.6685,0.80723 9.9961,2.35007 -0.1725,0.396 -0.4787,4.608 -0.6804,9.36 -0.2016,4.752 -0.6052,14.04 -0.8969,20.64 -0.2916,6.6 -0.731,16.644 -0.9763,22.32 -0.2453,5.676 -0.6846,15.68769 -0.9761,22.24821 -0.2915,6.56051 -0.4286,12.02961 -0.3046,12.15355 0.2642,0.26418 15.1689,0.83879 41.3582,1.59444 10.296,0.29707 24.0016,0.73965 30.4569,0.98351 8.0693,0.30483 11.8333,0.28738 12.0454,-0.0558 0.1697,-0.27457 0.4493,-4.32077 0.6213,-8.99154 0.172,-4.67078 0.5248,-13.24432 0.7841,-19.05232 1.9862,-44.4892 2.4781,-56.97424 2.2536,-57.19876 -0.2552,-0.25508 -10.7575,-0.85579 -27.6813,-1.58329 -6.732,-0.2894 -16.452,-0.73247 -21.6,-0.98462 -5.148,-0.25214 -12.5312,-0.59151 -16.4072,-0.75415 -4.9342,-0.20704 -7.1156,-0.47417 -7.2756,-0.89097 -0.6263,-1.63225 -0.4791,-1.63374 28.4828,-0.28988 6.204,0.28787 15.816,0.72963 21.36,0.98167 21.9745,0.99903 32.6013,1.48121 42.48,1.92749 5.676,0.25641 14.748,0.67657 20.16,0.93368 5.412,0.25711 15.672,0.71763 22.8,1.02338 7.7817,0.33379 13.0861,0.75419 13.2756,1.05215 0.8505,1.33741 -0.1737,1.74586 -3.8399,1.5313 -2.0216,-0.11831 -8.8597,-0.43885 -15.1957,-0.7123 -14.3778,-0.62052 -27.9305,-1.24914 -42.4123,-1.9672 -9.4617,-0.46916 -11.2779,-0.45233 -11.6326,0.10777 -0.2312,0.36505 -0.4237,2.76246 -0.4278,5.32758 0,2.56512 -0.2113,8.39712 -0.4607,12.96 -0.2494,4.56288 -0.6903,14.12815 -0.98,21.25615 -0.2896,7.128 -0.7272,17.172 -0.9726,22.32 -0.2453,5.148 -0.581,12.51076 -0.746,16.36168 l -0.3,7.00169 17.446,0.5729 c 9.5953,0.3151 23.602,0.77621 31.126,1.0247 7.524,0.2485 19.0113,0.59196 25.5274,0.76325 l 11.8474,0.31144 0.2495,-1.61783 c 0.1373,-0.88981 0.3833,-9.28261 0.5469,-18.65068 0.1999,-11.45159 0.4685,-17.1386 0.8195,-17.35559 0.2873,-0.17751 0.8298,-0.20474 1.2056,-0.0605 0.5501,0.21109 0.6309,1.11482 0.4144,4.63559 -0.1479,2.40535 -0.3278,10.85337 -0.3998,18.77337 l -0.1309,14.4 9.12,0.29627 c 5.016,0.16295 15.762,0.4675 23.88,0.67676 l 14.76,0.38049 v -4.51676 c 0,-2.48422 0.2463,-8.89478 0.551,-14.2457 0.3048,-5.35091 0.4221,-9.86099 0.2606,-10.02238 -0.1613,-0.16139 -8.237,-0.49816 -17.9457,-0.74836 -11.669,-0.30072 -17.7611,-0.6309 -17.9732,-0.97409 -0.7547,-1.22105 0.1617,-1.82667 2.4052,-1.58958 1.2238,0.12933 9.2801,0.36593 17.903,0.52579 l 15.6778,0.29065 0.3023,-3.03655 c 0.1663,-1.6701 0.4687,-7.46454 0.6719,-12.87654 0.2935,-7.81384 0.2418,-9.94835 -0.2509,-10.36618 -0.379,-0.32133 -4.5018,-0.64455 -10.5898,-0.83022 -5.4831,-0.16722 -15.869,-0.5287 -23.0798,-0.80329 -7.2107,-0.27459 -13.3127,-0.37424 -13.56,-0.22145 -0.2472,0.15279 -0.4494,2.07794 -0.4494,4.27811 0,3.93601 -0.469,5.06028 -1.7431,4.17862 -0.4569,-0.31608 0.088,-34.65241 0.572,-36.02776 0.1922,-0.54655 1.1932,-0.61363 5.3561,-0.35892 3.0348,0.18568 5.2595,0.53942 5.4629,0.86864 0.5283,0.85486 -0.069,1.89733 -0.9448,1.64927 -0.4307,-0.12199 -2.2844,-0.29043 -4.1192,-0.37431 l -3.3362,-0.15251 -0.3933,1.88178 c -0.2164,1.03497 -0.3351,6.32697 -0.2639,11.76 l 0.1313,9.8782 8.88,0.31034 c 4.884,0.17068 15.4445,0.5614 23.4677,0.86826 8.5513,0.32705 14.765,0.38069 15.0161,0.12962 0.473,-0.47299 1.5542,-22.41986 1.1557,-23.45839 -0.2016,-0.52535 -2.8629,-0.64983 -13.8931,-0.64983 -13.9376,0 -14.4791,-0.0702 -13.8757,-1.8 0.3035,-0.87005 29.0756,-0.87005 29.7719,0 0.3143,0.39259 0.3423,3.75262 0.081,9.72 -1.005,22.96415 -1.445,32.91495 -1.8892,42.72 -1.2241,27.0186 -1.4337,33.55236 -1.0874,33.8924 0.4349,0.42693 38.7601,1.60046 39.3977,1.20637 0.2361,-0.14591 0.5606,-3.56683 0.721,-7.60203 0.8799,-22.12592 1.3802,-30.95609 1.8026,-31.81674 0.2953,-0.60166 0.4227,-10.44314 0.3413,-26.36553 l -0.1298,-25.40552 -1.2218,-0.3267 c -0.6719,-0.17968 -5.2079,-0.41119 -10.08,-0.51447 l -8.8582,-0.18778 -0.1402,3.72 c -0.093,2.47154 -0.3348,3.73787 -0.72,3.77324 -2.2159,0.20347 -7.3564,-0.24052 -7.6154,-0.65773 -0.7075,-1.1399 0.2256,-1.75354 2.8783,-1.89283 l 2.7173,-0.14268 0.035,-3.47491 c 0.019,-1.9112 0.1272,-3.54614 0.24,-3.63319 0.501,-0.38661 22.9024,0.7091 24.0811,1.17786 l 1.3159,0.52333 0.1241,26.22346 0.124,26.22345 h 43.2 43.2 l 0.1234,-32.29377 c 0.098,-25.58643 0,-32.33858 -0.48,-32.50954 -0.5053,-0.18072 -9.4083,-1.4151 -29.5234,-4.09334 -1.914,-0.25484 -5.154,-0.68619 -7.2,-0.95857 -2.046,-0.27236 -5.286,-0.70436 -7.2,-0.96 -1.914,-0.25562 -5.1,-0.68078 -7.08,-0.94478 -3.4145,-0.45527 -5.8274,-0.77742 -14.16,-1.89045 -1.98,-0.26448 -18.18,-2.43778 -36,-4.829546 -39.2064,-5.26223 -38.1996,-5.12723 -42.96,-5.76 -2.112,-0.28074 -5.406,-0.71959 -7.32,-0.97522 -1.914,-0.25563 -5.1,-0.68078 -7.08,-0.94478 -1.98,-0.264 -5.22,-0.696 -7.2,-0.96 -1.98,-0.264 -5.274,-0.70313 -7.32,-0.97583 -4.3709,-0.5826 -5.3122,-0.7086 -25.08,-3.35733 -8.316,-1.11427 -15.2677,-2.25884 -15.4483,-2.54348 -0.5017,-0.79081 0.017,-1.28336 1.3506,-1.28336 0.663,0 11.7203,1.41084 24.5716,3.13521 22.561,3.02718 26.1453,3.50735 33.9261,4.54479 1.98,0.264 5.22,0.696 7.2,0.96 1.98,0.264 5.274,0.70284 7.32,0.97521 9.0579,1.2058 11.9953,1.59916 50.04,6.70094 17.82,2.389656 35.64,4.777376 39.6,5.306046 3.96,0.52868 8.712,1.16511 10.56,1.4143 1.848,0.24919 5.034,0.67592 7.08,0.94828 2.046,0.27238 5.286,0.70438 7.2,0.96 1.914,0.25564 5.208,0.69476 7.32,0.97584 2.112,0.28107 5.244,0.70043 6.96,0.9319 1.716,0.23147 5.172,0.6852 7.68,1.00831 2.508,0.3231 4.83,0.80105 5.16,1.06209 0.8555,0.67667 0.8789,67.56621 0.024,68.42108 -0.4397,0.43972 -11.1126,0.576 -45.1108,0.576 h -44.5349 l -0.2188,1.08 c -0.1203,0.594 -0.3346,4.32 -0.4761,8.28 -0.6239,17.464 -1.3656,29.80546 -1.8244,30.36 -0.2731,0.33 -1.2801,0.5644 -2.2377,0.52089 -0.9577,-0.0435 -7.0333,-0.24021 -13.5013,-0.4371 z M 974.1012,201.24 c 0.1835,-5.214 0.5291,-13.8 0.7679,-19.08 1.1329,-25.04974 1.5404,-37.2705 1.2523,-37.55861 -0.1733,-0.17324 -3.06142,-0.47187 -6.4182,-0.66361 -3.35674,-0.19175 -9.8832,-0.5868 -14.5032,-0.87789 -20.07835,-1.26507 -22.81723,-1.39243 -23.12083,-1.07516 -0.1765,0.1844 -0.56122,8.21927 -0.85503,17.85527 -0.29376,9.636 -0.74304,24.42484 -0.99844,32.86409 -0.25536,8.43924 -0.34205,15.72924 -0.19268,16.2 0.24615,0.77552 1.06887,0.86173 8.75933,0.91788 4.66819,0.0341 11.72765,0.21181 15.68765,0.39496 3.96,0.18314 9.91973,0.37126 13.24382,0.41803 l 6.04378,0.085 z M 107.46795,177.69725 c 0.25396,-0.47452 0.51277,-6.36052 0.57515,-13.08 L 108.15652,152.4 105.1987,152.11308 c -1.62681,-0.15781 -12.19202,-0.37381 -23.47826,-0.48 L 61.2,151.44 61.071946,164.39284 c -0.07043,7.12407 -0.02318,13.22607 0.104937,13.56 0.183331,0.47775 5.092095,0.60716 23.031167,0.60716 21.45033,0 22.82547,-0.051 23.2599,-0.86275 z m 0.74449,-28.37266 c 0.14801,-0.23948 0.41151,-6.61069 0.58556,-14.15824 l 0.31646,-13.72283 -22.03723,0.30125 C 74.95675,121.91046 64.176,122.18555 63.12,122.35608 l -1.92,0.31008 -0.128141,12.67477 c -0.08587,8.49361 0.04056,12.84373 0.383266,13.18693 0.327989,0.32846 5.710704,0.60319 15.008145,0.76601 26.56005,0.46512 31.47776,0.46987 31.74917,0.0307 z M 976.9484,133.50028 c 0.2137,-4.58684 0.2876,-8.60256 0.1643,-8.92383 -0.1503,-0.39184 -2.2532,-0.69245 -6.3884,-0.91325 -6.17726,-0.32984 -13.98508,-0.79283 -29.17598,-1.7301 -5.70442,-0.35196 -8.28341,-0.35035 -8.64,0.005 -0.30768,0.30692 -0.56731,3.87932 -0.65779,9.04955 l -0.14947,8.54245 5.66947,0.30455 c 3.11822,0.1675 9.34147,0.54379 13.82947,0.8362 4.488,0.2924 10.752,0.70083 13.92,0.90761 3.168,0.20679 6.948,0.35014 8.4,0.31856 l 2.64,-0.0574 z m -822.76623,29.28286 c -0.29193,-0.18042 -0.59634,-1.72643 -0.67648,-3.43559 L 153.36,156.24 l -2.23808,-0.14459 c -2.60715,-0.16843 -2.84773,-0.51353 -3.2454,-4.65541 L 147.6,148.56 129.24,148.4343 110.88,148.30859 V 147.12 145.93141 l 18.36,-0.12571 18.36,-0.1257 0.24414,-9.12 c 0.13428,-5.016 0.42314,-9.48694 0.64192,-9.93541 0.2714,-0.55635 1.10883,-0.86135 2.63586,-0.96 L 153.36,125.52 l 0.14569,-3.10755 c 0.1448,-3.08827 0.61903,-3.98936 1.85078,-3.51669 0.87851,0.33712 0.90845,7.96683 0.0341,8.69246 -0.33518,0.27818 -1.57718,0.57463 -2.76,0.65878 L 150.48,128.4 v 12.48 12.48 l 1.44,0.1394 c 0.792,0.0767 2.034,0.37288 2.76,0.65824 1.2918,0.50774 1.32,0.60366 1.32,4.48924 0,3.96452 -0.44765,4.98308 -1.81783,4.13626 z M 908.88,121.47974 c -0.528,-0.20868 -6.67541,-0.52568 -13.66085,-0.70445 -8.63813,-0.22106 -12.80865,-0.49939 -13.03776,-0.87009 -0.18528,-0.29979 -0.16747,-0.9951 0.0394,-1.54513 0.20698,-0.55004 0.45797,-3.70007 0.55771,-7.00007 l 0.18135,-6 -23.62973,-0.12452 -23.62973,-0.12451 -0.2256,1.08451 c -0.59587,2.86429 -0.58637,9.28701 0.0154,10.20917 0.34603,0.53055 0.47635,1.20554 0.28954,1.49998 -0.48019,0.75698 -24.10882,-0.12664 -24.91013,-0.93155 -0.46358,-0.46564 -0.91166,-9.64873 -0.66653,-13.65895 0.0298,-0.48413 7.43899,-0.56456 36.87706,-0.40027 38.14526,0.21288 44.03861,0.40468 44.4383,1.44629 0.44981,1.17224 -0.44779,1.66682 -3.28982,1.81266 l -2.86848,0.14719 -0.32535,5.28 c -0.17894,2.904 -0.22934,5.62351 -0.11198,6.04335 0.18456,0.66031 1.81315,0.80575 12.06398,1.07736 6.51788,0.1727 12,0.15319 12.1826,-0.0434 0.18259,-0.19654 0.40819,-3.27335 0.50136,-6.83735 l 0.16939,-6.48 -3.10757,-0.14569 c -3.08827,-0.1448 -3.98933,-0.61903 -3.51667,-1.85078 0.33446,-0.87155 7.97443,-0.90994 8.66477,-0.0435 0.31056,0.38979 0.337,3.20661 0.0755,8.04 -0.22147,4.092 -0.2843,7.82836 -0.13963,8.30304 0.28704,0.94208 -0.57211,2.27505 -1.4351,2.22653 -0.2977,-0.0168 -0.97325,-0.20116 -1.50125,-0.40983 z m -75.95218,-10.35322 c 0.20228,-2.63641 0.26136,-5.0708 0.13128,-5.40977 -0.18427,-0.48023 -2.43792,-0.58764 -10.20777,-0.48652 L 812.88,105.36 v 5.04 5.04 l 6.72,0.27029 c 3.696,0.14866 8.124,0.25666 9.84,0.24 l 3.12,-0.0303 z M 220.44,113.88929 c -0.40643,-0.14177 -0.6,-1.34491 -0.6,-3.72929 0,-2.38438 0.19357,-3.58752 0.6,-3.72929 1.43708,-0.50129 1.8,0.25063 1.8,3.72929 0,3.47866 -0.36292,4.23058 -1.8,3.72929 z M 560.52206,109.32 c -0.67108,-1.82489 -1.30636,-1.8 45.94656,-1.8 47.25048,0 46.61722,-0.0248 45.98069,1.8 -0.16545,0.47434 -9.79065,0.6 -45.95793,0.6 -36.16128,0 -45.79493,-0.12574 -45.96932,-0.6 z m -288.99491,-3.90597 c -0.13108,-0.3416 -0.0932,-0.85594 0.0842,-1.14299 0.42567,-0.68875 113.43882,-1.58208 113.90422,-0.90037 1.0799,1.58183 0.20431,1.63129 -34.06485,1.92429 -18.66191,0.15956 -44.22551,0.39137 -56.808,0.51513 -18.43471,0.18133 -22.92354,0.10442 -23.11559,-0.39606 z M 60.102168,79.263144 c -0.291926,-0.18042 -0.596338,-1.72643 -0.676474,-3.43559 L 59.28,72.720004 55.124434,72.581964 c -2.867276,-0.0952 -4.229981,-0.33196 -4.395591,-0.76353 -0.668467,-1.74199 -0.164702,-1.77517 28.511547,-1.87794 l 28.03961,-0.10049 0.24,-20.16 c 0.132,-11.088 0.40439,-20.484 0.6053,-20.88 0.3229,-0.63642 8.91062,-0.70001 73.97405,-0.54782 49.62561,0.11609 73.90795,0.012 74.52709,-0.3193 0.54988,-0.29428 1.22124,-0.32198 1.67325,-0.069 0.54183,0.30323 190.73796,1.24573 195.65527,0.96955 0.46291,-0.026 0.6227,4.62695 0.72,20.96659 l 0.12504,21 9.81802,0.13025 c 9.84696,0.13064 10.84262,0.31199 10.24622,1.86622 -0.36456,0.95002 -31.12392,0.95002 -31.48848,0 -0.50319,-1.31129 0.47475,-1.71634 4.47952,-1.85536 l 4.06472,-0.14111 0.12552,-19.41048 c 0.069,-10.67576 -0.039,-19.56308 -0.24,-19.74959 -0.20103,-0.18651 -11.05752,-0.4158 -24.12552,-0.50952 l -23.76,-0.17043 v 19.92 19.92 l 13.17655,0.12789 c 13.28179,0.12891 14.22553,0.2585 13.60769,1.86858 -0.36668,0.95553 -58.0018,0.95553 -58.36848,0 -0.62232,-1.62175 0.30332,-1.74051 14.56799,-1.86907 l 14.13625,-0.1274 v -19.92 -19.92 h -22.56 -22.56 v 20.4 20.4 l 2.23808,0.14458 c 2.24134,0.1448 3.05291,0.83264 2.34118,1.98425 -0.5134,0.8307 -13.46055,0.80573 -13.97517,-0.0269 -0.78758,-1.27433 0.13714,-1.82064 3.31923,-1.96094 l 3.19668,-0.14099 v -20.4 -20.4 l -22.67875,-0.1247 -22.67875,-0.1247 0.29547,18.8447 c 0.16252,10.36458 0.44154,19.6007 0.62005,20.5247 l 0.32457,1.68 13.25023,0.1275 c 13.54768,0.13038 14.44166,0.2616 13.38871,1.96531 -0.50222,0.8126 -60.54301,0.80909 -61.04526,-0.003 -1.07021,-1.73164 -0.25306,-1.83307 15.81259,-1.96275 L 306,71.760004 l -0.16166,-19.68 c -0.0889,-10.824 -0.26546,-20.058 -0.39234,-20.52 -0.21565,-0.78524 -1.74346,-0.84 -23.4333,-0.84 h -23.20261 l -0.26173,2.28 c -0.14395,1.254 -0.32622,10.488 -0.40504,20.52 l -0.14332,18.24 2.62952,0.14888 c 2.64853,0.14996 3.48965,0.66205 3.03472,1.84759 -0.34294,0.89366 -11.93441,0.93481 -12.26218,0.0435 -0.44647,-1.21407 0.22695,-1.8 2.06879,-1.8 1.55538,0 1.90773,-0.18212 2.08947,-1.08 0.12024,-0.594 0.34234,-9.882 0.49356,-20.64 l 0.27494,-19.56 h -22.76346 -22.76345 l -0.2633,3.48 c -0.14481,1.914 -0.37992,11.06077 -0.52246,20.32615 l -0.25916,16.84616 5.83686,0.31384 c 3.21028,0.17262 9.88385,0.31385 14.83015,0.31385 7.07627,0 9.04593,0.13717 9.24024,0.64353 0.13582,0.35394 0.10492,0.86824 -0.0686,1.1429 -0.4526,0.71617 -60.6485,-0.20012 -61.09963,-0.93004 -0.90111,-1.45803 0.19435,-1.57639 14.58913,-1.57639 H 207.6 l 0.36801,-19.91296 c 0.2024,-10.95213 0.26236,-20.18827 0.13324,-20.52476 -0.18655,-0.48613 -4.8452,-0.58617 -22.68215,-0.48703 l -22.44738,0.12474 -0.30017,2.16 c -0.16508,1.188 -0.38372,10.476 -0.48585,20.64 l -0.1857,18.48 2.15211,0.15307 c 2.21179,0.15732 2.98486,0.71571 2.55213,1.8434 -0.34294,0.89366 -11.93441,0.93481 -12.26218,0.0435 -0.47731,-1.29795 0.22712,-1.8 2.5256,-1.8 1.80876,0 2.37917,-0.18725 2.55877,-0.84 0.12711,-0.462 0.30367,-9.804 0.39234,-20.76 L 160.08,30.480004 h -24.96 -24.96 v 20.16 20.16 l 15.57586,0.12677 c 15.73985,0.12811 16.6365,0.23284 16.00838,1.8697 -0.1998,0.52068 -3.38019,0.64353 -16.6596,0.64353 -10.40915,0 -16.58996,-0.17732 -16.8974,-0.48476 -0.31628,-0.31628 -8.39887,-0.4414 -23.256,-0.36 l -22.77124,0.12476 -0.140942,3.19668 c -0.138807,3.14819 -0.687576,4.10622 -1.91689,3.34646 z M 1068.48,77.872694 c -1.4355,-0.16909 -18.4667,-2.50892 -32.16,-4.4183 -5.412,-0.75464 -10.974,-1.51887 -12.36,-1.69828 -1.386,-0.17941 -2.5336,-0.57593 -2.5503,-0.88116 -0.017,-0.30522 -0.071,-1.95895 -0.12,-3.67495 l -0.09,-3.12 -6.4607,-0.13464 c -6.4269,-0.13392 -7.4413,-0.4083 -6.8835,-1.86184 0.1896,-0.49422 1.7559,-0.64352 6.7514,-0.64352 h 6.5044 l -0.3808,-9.72 c -0.2094,-5.346 -0.5135,-12.528 -0.6757,-15.96 l -0.2951,-6.24 -21.12,0.17518 c -11.616,0.0964 -21.3198,0.36094 -21.564,0.58799 -0.6228,0.579 -1.4067,40.77811 -0.807,41.37787 0.2566,0.25654 0.805,0.33653 1.2187,0.17776 0.6087,-0.23357 0.7523,-1.14377 0.7523,-4.76774 0,-2.84372 0.2103,-4.68937 0.576,-5.05506 0.868,-0.868 15.0732,-0.80574 15.4082,0.0675 0.5578,1.45354 -0.4566,1.72791 -6.8835,1.86184 l -6.4604,0.13463 -0.1366,4.61049 c -0.1302,4.39838 -0.192,4.63577 -1.3425,5.16 -0.8864,0.40386 -18.10639,0.54951 -64.97215,0.54951 -66.42091,0 -65.07926,0.0386 -63.91766,-1.84083 0.25329,-0.40986 11.06318,-0.58566 41.59555,-0.67648 l 41.25336,-0.12266 0.41674,-5.13042 c 0.26491,-3.26111 0.63052,-5.21246 1.00353,-5.35559 1.35034,-0.51817 1.56831,0.42666 1.2012,5.20601 -0.2028,2.64 -0.26885,4.962 -0.14678,5.16 0.12206,0.198 8.53056,0.36 18.68553,0.36 h 18.46354 l 0.40254,-1.08 c 0.2214,-0.594 0.486,-10.044 0.5881,-21 l 0.1856,-19.92 -6.05141,0.16489 c -4.9224,0.13413 -6.1007,0.0365 -6.3156,-0.52353 -0.14529,-0.37863 -0.11784,-0.92516 0.061,-1.21452 0.22498,-0.36401 9.12139,-0.65779 28.87561,-0.95355 15.7027,-0.23509 28.8744,-0.57049 29.2704,-0.74533 1.919,-0.84725 1.7721,-2.33846 3.3141,33.63691 0.2066,4.82068 0.4805,8.86973 0.6087,8.99788 0.2985,0.29852 30.3336,4.64091 43.4481,6.28158 2.3838,0.29823 3.3031,0.97286 2.6247,1.92622 -0.1736,0.24392 -0.8556,0.37988 -1.5156,0.30214 z m -331.66757,-3.37478 c -1.70913,-0.0821 -3.25517,-0.38816 -3.43555,-0.68008 -0.71885,-1.16311 0.19675,-1.77501 2.86579,-1.91515 l 2.71733,-0.14268 0.12514,-20.52 0.12518,-20.52 H 715.9199 692.62949 l 0.12523,20.04 0.12528,20.04 14.13624,0.1274 c 14.26469,0.12856 15.19032,0.24732 14.568,1.86907 -0.36677,0.95583 -60.88171,0.95583 -61.24848,0 -0.62438,-1.62708 0.29184,-1.74089 15.04814,-1.86929 L 690,70.800004 l 0.12528,-20.04471 0.12528,-20.0447 -22.68528,0.1247 -22.68528,0.12471 v 19.92 19.92 l 2.2381,0.14458 c 2.2392,0.14466 3.05294,0.8326 2.34321,1.98096 -0.5147,0.83275 -12.4968,0.81842 -13.01222,-0.0156 -0.75125,-1.21553 0.12686,-1.82517 2.83358,-1.9673 L 642,70.800004 v -19.92 -19.92 h -20.64 -20.64 l -0.12523,20.33374 -0.12528,20.33375 11.99808,-0.17868 c 11.93045,-0.17767 12.98078,-0.0556 12.07881,1.40381 -0.44769,0.72434 -58.73097,1.64161 -59.18198,0.93141 -0.17357,-0.27334 -0.20443,-0.78656 -0.0686,-1.14051 0.19196,-0.5003 1.92764,-0.64352 7.79862,-0.64352 4.15344,0 11.4743,-0.14209 16.26864,-0.31575 l 8.71694,-0.31575 v -20.05592 c 0,-11.03076 -0.162,-20.13996 -0.36,-20.24266 -0.198,-0.10271 -12.132,-0.0614 -26.52,0.0917 l -26.16,0.27838 v 19.68 19.68 l 3.67608,0.1394 c 3.68525,0.13975 4.62235,0.63165 3.7848,1.98678 -0.50981,0.82491 -28.84018,0.77923 -29.35104,-0.0473 -0.99562,-1.61099 0.0173,-1.81712 9.57768,-1.94887 l 9.43248,-0.12998 0.12509,-20.46547 c 0.0972,-15.89756 0.26198,-20.57905 0.73829,-20.97433 0.42801,-0.35522 51.40348,-0.58916 168.83486,-0.77483 92.52197,-0.14628 180.88358,-0.38703 196.35917,-0.53499 31.07448,-0.29711 29.10264,-0.48912 28.2803,2.75381 -0.22257,0.87769 -0.53606,5.14858 -0.69667,9.49086 -0.18974,5.13089 -0.4849,8.01428 -0.84298,8.23559 -0.85008,0.52537 -1.89196,-0.0729 -1.65,-0.94749 0.11919,-0.43073 0.28762,-4.45515 0.37431,-8.94315 l 0.15763,-8.16 h -48 -48 l 0.17376,18.24 c 0.0956,10.032 0.33566,19.644 0.53347,21.36 0.19781,1.716 0.25853,3.39 0.13488,3.72 -0.33,0.88074 -9.04718,0.84032 -9.38635,-0.0435 -0.47266,-1.23176 0.4284,-1.70599 3.51667,-1.85078 l 3.10757,-0.14568 -0.17491,-20.16 c -0.1236,-14.2467 -0.33591,-20.33209 -0.72384,-20.74669 -0.42543,-0.45473 -5.7036,-0.51818 -23.46509,-0.28209 L 788.64,30.875884 v 20.24915 20.24915 l 5.11469,0.31294 c 2.81304,0.17212 9.26995,0.31295 14.34864,0.31295 7.27747,0 9.28627,0.13635 9.48091,0.64352 0.13579,0.35395 0.10493,0.86659 -0.0686,1.13923 -0.45341,0.71212 -59.69126,-0.20092 -60.14002,-0.92694 -0.90955,-1.47171 0.15092,-1.57493 14.46956,-1.40835 l 14.39482,0.16747 v -20.44754 -20.44746 h -22.32514 -22.32518 l 0.12518,20.52 0.12514,20.52 1.75882,0.14652 c 1.7352,0.14455 2.53238,0.92013 1.91678,1.86483 -0.3829,0.58757 -4.47888,0.92952 -8.70317,0.72656 z"
     style="fill:#000000;stroke-width:0.47999999" />
</svg>
