<?xml version="1.0" encoding="UTF-8" standalone="no"?>
<svg
   xmlns:dc="http://purl.org/dc/elements/1.1/"
   xmlns:cc="http://creativecommons.org/ns#"
   xmlns:rdf="http://www.w3.org/1999/02/22-rdf-syntax-ns#"
   xmlns:svg="http://www.w3.org/2000/svg"
   xmlns="http://www.w3.org/2000/svg"
   viewBox="0 0 2838 561"
   height="561"
   width="2838"
   id="svg10"
   version="1.1">
  <metadata
     id="metadata16">
    <rdf:RDF>
      <cc:Work
         rdf:about="">
        <dc:format>image/svg+xml</dc:format>
        <dc:type
           rdf:resource="http://purl.org/dc/dcmitype/StillImage" />
        <dc:title></dc:title>
      </cc:Work>
    </rdf:RDF>
  </metadata>
  <defs
     id="defs14" />
  <path
     id="path20"
     d="m 2586.3338,493.1872 c -0.4116,-0.4125 -11.6241,-1.09252 -24.9167,-1.51115 -13.2926,-0.41863 -34.7433,-1.19351 -47.6683,-1.72195 -12.925,-0.52845 -34.3,-1.39657 -47.5,-1.92916 -62.6827,-2.52911 -73.8538,-2.9915 -85.5,-3.53896 -6.875,-0.32318 -29.6,-1.24588 -50.5,-2.05045 -20.9,-0.80457 -43.175,-1.72498 -49.5,-2.04535 -11.2925,-0.57198 -37.4028,-1.63818 -86,-3.51175 -13.475,-0.5195 -34.625,-1.39362 -47,-1.94248 -26.6692,-1.18285 -63.3094,-2.73059 -96.5,-4.07632 -28.549,-1.15753 -60.3099,-2.49175 -92.5,-3.88578 -12.925,-0.55973 -34.3,-1.44881 -47.5,-1.97574 -13.2,-0.52692 -35.25,-1.4219 -49,-1.98883 -54.646,-2.25313 -73.0954,-2.99432 -99,-3.97726 -14.85,-0.56348 -31.725,-1.27916 -37.5,-1.59039 -5.775,-0.31124 -21.975,-1.02721 -36,-1.59104 -14.025,-0.56384 -36.525,-1.47158 -50,-2.01721 -13.475,-0.54562 -35.525,-1.41581 -49,-1.93374 -13.475,-0.51793 -34.625,-1.3934 -47,-1.94549 -23.6456,-1.0549 -55.7069,-2.423 -95,-4.05376 -12.925,-0.53642 -34.3,-1.43336 -47.5,-1.99319 -37.128,-1.57467 -109.4907,-4.55198 -143,-5.88364 -13.2,-0.52457 -27.2829,-1.27557 -31.2953,-1.6689 -4.8858,-0.47894 -9.0855,-0.2857 -12.7152,0.58506 -8.1049,1.94433 -8.4895,1.35467 -8.4895,-13.01571 v -11.7683 l -19.25,-0.63069 c -10.5875,-0.34688 -147.95,-1.08384 -305.24999,-1.63768 -157.3,-0.55385 -381.4,-1.43622 -498,-1.96083 -116.6,-0.5246 -215.68036,-0.96181 -220.17857,-0.97157 -11.54839,-0.0251 -11.64052,-0.15565 -10.87616,-15.41945 0.33322,-6.65406 1.04208,-27.62329 1.57526,-46.59829 0.53318,-18.975 1.40285,-49.575 1.93259,-68 0.52975,-18.425 1.24585,-44.975 1.59135,-59 0.34559,-14.02858 1.0611,-25.94986 1.59051,-26.5 0.57811,-0.60075 15.21624,-1.30425 36.66367,-1.76204 19.63574,-0.41912 56.85135,-1.20237 82.70135,-1.74055 25.85,-0.53818 51.5,-1.32026 57,-1.73796 l 10,-0.75945 -0.13713,-25 c -0.0754,-13.75 -0.46412,-31.4172 -0.86377,-39.26045 -0.58054,-11.3933 -0.45255,-14.59071 0.63658,-15.90303 1.2434,-1.49821 5.40624,-1.58284 47.36377,-0.96288 25.3003,0.37384 98.65055,1.0941 163.00055,1.60058 172.48243,1.35755 360.68924,3.07807 421,3.84863 l 52.99999,0.67715 0.5,38.5 0.5,38.5 90.9377,0.25532 c 72.0891,0.2024 91.1029,-0.005 91.7347,-1 0.4383,-0.69042 0.8039,-17.36517 0.8123,-37.05498 0.013,-30.92444 0.2344,-36.2234 1.6244,-38.91128 l 1.6091,-3.11162 115.6409,0.64766 c 63.6025,0.35621 245.9159,1.14016 405.1409,1.74211 159.225,0.60196 320.55,1.39559 358.5,1.76363 l 69,0.66916 -0.392,37.60913 -0.3919,37.60913 5.3919,0.70382 c 2.9656,0.3871 8.092,1.09391 11.392,1.57069 3.3,0.47678 9.6,1.37743 14,2.00145 4.4,0.62402 10.475,1.52662 13.5,2.00578 3.025,0.47916 9.1,1.38176 13.5,2.00578 4.4,0.62402 10.7,1.54198 14,2.03991 3.3,0.49793 8.025,1.14911 10.5,1.44706 2.475,0.29796 6.75,0.959 9.5,1.46897 6.8306,1.2667 17.2481,2.77691 52,7.53835 9.9,1.35643 20.925,2.91158 24.5,3.4559 3.575,0.54432 8.525,1.26381 11,1.59886 2.475,0.33506 6.975,1.01958 10,1.52115 3.025,0.50157 8.875,1.39365 13,1.98238 4.125,0.58874 9.975,1.46248 13,1.94164 3.025,0.47916 9.1,1.38176 13.5,2.00578 9.8566,1.39788 19.1151,2.75066 27,3.94502 3.3,0.49986 9.375,1.36437 13.5,1.92113 4.125,0.55676 15.375,2.17928 25,3.6056 9.625,1.42632 20.875,3.06127 25,3.63322 4.125,0.57195 10.65,1.49218 14.5,2.04495 3.85,0.55278 9.7,1.3873 13,1.85449 15.3113,2.16769 21.4399,3.07479 27,3.99626 3.3,0.54691 9.15,1.45774 13,2.02406 3.85,0.56631 9.7,1.43455 13,1.9294 3.3,0.49485 9.6,1.41029 14,2.03431 4.4,0.62402 10.475,1.52662 13.5,2.00578 5.1027,0.80827 8.6804,1.31411 27.5,3.88817 3.85,0.52659 11.95,1.70702 18,2.62319 6.05,0.91617 14.0375,2.07591 17.75,2.5772 7.7589,1.04767 18.3794,2.55463 27.75,3.93748 3.575,0.52758 9.875,1.44413 14,2.03678 9.8627,1.417 18.1298,2.65961 25.5,3.83286 15.7374,2.50521 24.9294,3.86387 40.5,5.98627 4.125,0.56227 10.875,1.55477 15,2.20556 4.125,0.65079 9.3858,1.24565 11.6907,1.32192 2.3049,0.0763 4.5549,0.50193 5,0.94591 0.4451,0.44398 1.0969,16.18316 1.4485,34.97595 0.3516,18.79279 0.9842,48.68077 1.4059,66.41772 0.7212,30.33783 0.6593,32.3676 -1.0442,34.25 -1.7855,1.97292 -3.0749,2.00118 -91.9059,2.01464 -49.5522,0.008 -91.0642,0.27366 -92.2487,0.59145 -2.7539,0.73882 -3.1475,3.29692 -4.3692,28.3949 -0.5221,10.725 -1.2246,25.125 -1.5612,32 -0.7707,15.74416 -0.9531,16 -11.4042,16 -4.2231,0 -8.0151,-0.3375 -8.4267,-0.75 z m 11.7271,-11.75 c 1.4198,-6.73731 4.1645,-70.83749 5.2737,-123.1659 l 0.597,-28.1659 -2.3414,-1.27813 c -1.2878,-0.70298 -8.1914,-1.64643 -15.3414,-2.09656 -24.0595,-1.51467 -28.6991,-2.14226 -29.8919,-4.04351 -1.7614,-2.80766 0.4532,-5.28897 4.5134,-5.0569 4.4901,0.25664 29.2195,2.16776 39.8534,3.07993 11.3795,0.97613 11.2687,0.74111 10.4834,22.22697 -0.3317,9.075 -0.683,27.525 -0.7807,41 l -0.1776,24.5 h 89.5 89.5 l -0.1693,-43.5 c -0.093,-23.925 -0.4686,-51.26701 -0.8344,-60.76001 -0.756,-19.61676 -0.1916,-18.50481 -9.9963,-19.69382 -11.2261,-1.36139 -18.9883,-2.44084 -25.5,-3.54617 -6.3631,-1.0801 -14.485,-2.30917 -26.5,-4.01019 -18.9762,-2.68655 -22.4991,-3.19767 -27.5,-3.98981 -5.1521,-0.8161 -13.3487,-2.00188 -27.5,-3.97837 -3.3,-0.46091 -8.925,-1.29545 -12.5,-1.85454 -6.2444,-0.97656 -35.3723,-5.14592 -51,-7.30011 -4.125,-0.56861 -10.2,-1.43276 -13.5,-1.92032 -3.3,-0.48757 -9.15,-1.34984 -13,-1.91615 -3.85,-0.56632 -9.7,-1.47715 -13,-2.02406 -5.5601,-0.92147 -11.6887,-1.82857 -27,-3.99626 -3.3,-0.46719 -9.375,-1.35065 -13.5,-1.96322 -16.255,-2.41393 -20.7638,-3.0684 -27.5,-3.99174 -9.6131,-1.31767 -19.0979,-2.69648 -31.4946,-4.57835 -11.0097,-1.67134 -19.5103,-2.89176 -32.0054,-4.59493 -4.125,-0.56227 -10.425,-1.45256 -14,-1.97841 -9.207,-1.35428 -18.4533,-2.70049 -26,-3.78545 -3.575,-0.51396 -9.65,-1.4671 -13.5,-2.11809 -3.85,-0.65099 -9.7,-1.55614 -13,-2.01144 -3.3,-0.4553 -9.15,-1.30026 -13,-1.87769 -3.85,-0.57744 -10.375,-1.51116 -14.5,-2.07495 -4.125,-0.56379 -10.425,-1.45234 -14,-1.97457 -3.575,-0.52222 -11.675,-1.63933 -18,-2.48245 -6.325,-0.84312 -14.2,-2.00802 -17.5,-2.58866 -3.3,-0.58064 -9.375,-1.52852 -13.5,-2.1064 -19.9066,-2.78878 -33.6121,-4.74334 -41.75,-5.95402 -3.4375,-0.5114 -9.0625,-1.34824 -12.5,-1.85964 -3.4375,-0.5114 -9.625,-1.41412 -13.75,-2.00603 -4.125,-0.59192 -10.2,-1.51753 -13.5,-2.05692 -8.3884,-1.37108 -17.7108,-2.76941 -26.5,-3.97494 -14.5826,-2.00015 -14.3798,-1.89533 -15.3402,-7.92904 l -0.8462,-5.31597 -3.1568,0.73556 c -5.3889,1.25565 -7.8605,1.04399 -9.025,-0.77284 -1.8448,-2.87842 0.4188,-5.17266 5.718,-5.79546 2.5526,-0.30001 5.1282,-1.03249 5.7234,-1.62774 2.2254,-2.22539 2.8797,-9.45569 2.9029,-32.0768 l 0.024,-23.25 h -36 -36 v 27.89301 c 0,24.51229 0.1917,27.96658 1.5818,28.5 0.87,0.33385 7.3791,0.60699 14.4648,0.60699 11.2564,0 12.9979,0.22096 13.7926,1.75 0.5002,0.9625 0.5842,2.65 0.1866,3.75 -0.6653,1.84043 -1.872,2.03989 -15.1244,2.5 l -14.4014,0.5 -0.3218,3.5 c -0.1907,2.07407 -1.3873,4.62037 -2.9371,6.25 l -2.6153,2.75 h -126.2777 c -125.2543,0 -126.2864,-0.0162 -127.3481,-2 -0.7605,-1.42099 -0.7605,-2.57901 0,-4 1.0616,-1.98354 2.0938,-2 125.4186,-2 h 124.3481 l 0.603,-2.25 c 0.7706,-2.87538 0.7945,-62.53621 0.026,-65.39978 -0.5686,-2.11957 -0.9864,-2.15818 -29.7363,-2.74813 -16.0378,-0.3291 -77.4221,-0.8716 -136.4096,-1.20557 l -107.2498,-0.60722 v 39.98291 c 0,33.06622 -0.2424,40.18406 -1.4011,41.14572 -0.8949,0.74272 -4.5598,1.05792 -10.1443,0.87245 -7.0338,-0.23361 -8.9584,-0.63254 -9.8438,-2.04038 -2,-3.18016 0.4187,-5.2136 6.5962,-5.54553 l 5.5,-0.29553 0.6465,-9.1081 c 0.8342,-11.75249 0.8323,-43.87547 0,-55.64722 l -0.653,-9.15362 h -44.2449 -44.2449 l -0.707,12.25 c -0.3889,6.7375 -0.7738,23.275 -0.8554,36.75 l -0.1483,24.5 27,0.5 27,0.5 v 3.5 3.5 l -31.5,-0.35145 c -17.325,-0.1933 -43.3108,-0.55803 -57.7461,-0.81051 l -26.2462,-0.45906 -0.6155,-2.45248 c -0.3577,-1.42527 -0.065,-3.11517 0.6976,-4.03468 1.1391,-1.37261 3.5716,-1.50645 18.3617,-1.01031 9.3767,0.31455 20.7407,0.85412 25.2534,1.19904 8.0347,0.61412 8.215,0.57831 8.6931,-1.72671 1.5438,-7.4431 3.2357,-67.03886 1.995,-70.27205 -0.5406,-1.40876 -5.3537,-1.58179 -44,-1.58179 h -43.393 v 36 36 h 3.3776 c 3.9069,0 5.9152,1.91127 5.4492,5.186 -0.2693,1.89198 -1.2068,2.4578 -5.3268,3.21489 -2.75,0.50535 -8.3238,0.95937 -12.3862,1.00896 -6.0095,0.0734 -7.5928,-0.23603 -8.4949,-1.65985 -1.6793,-2.65071 0.4238,-5.19321 4.5926,-5.55203 l 3.509,-0.30204 0.6326,-6.69796 c 0.8191,-8.67215 0.8338,-53.1169 0.02,-60.9019 l -0.6269,-5.99732 -35.1231,-0.78452 c -19.3178,-0.43149 -38.7232,-0.83621 -43.1232,-0.89938 l -8,-0.11485 -0.7448,12.5 c -0.4097,6.875 -1.0074,23.4125 -1.3282,36.75 l -0.5832,24.25 h 17.387 c 18.9162,0 21.2471,0.5717 20.6142,5.05603 l -0.345,2.44397 -49.2286,0.25941 -49.2286,0.25941 -0.6331,-2.5224 c -1.3322,-5.30856 -0.4028,-5.49642 27.1938,-5.49642 h 25.3585 l 0.4759,-2.25 c 0.7703,-3.64219 2.5688,-43.2009 2.5653,-56.42857 0,-9.73509 -0.3184,-12.49386 -1.5745,-13.75 -1.3804,-1.38033 -6.8528,-1.57143 -45,-1.57143 h -43.4286 v 37 37 h 3.3776 c 3.9099,0 5.9147,1.91121 5.4492,5.19496 -0.3176,2.24005 -0.6611,2.31301 -12.185,2.58771 -12.3496,0.29439 -14.6418,-0.31146 -14.6418,-3.86993 0,-2.15088 2.8383,-3.91274 6.3034,-3.91274 3.4364,0 3.6746,-2.39873 3.6746,-37 0,-16.225 -0.2789,-31.1875 -0.6198,-33.25 l -0.6199,-3.75 h -43.3815 -43.3814 l 0.2623,36.75 0.2623,36.75 26.9176,0.26665 c 18.4219,0.18249 27.3541,0.6289 28.3006,1.4144 0.7606,0.63127 1.2477,2.31128 1.0824,3.73335 l -0.3006,2.5856 h -60.391 c -56.4281,0 -60.4635,-0.11484 -61.4949,-1.75 -0.8049,-1.27603 -0.805,-2.22397 -5e-4,-3.5 1.0003,-1.58655 3.6731,-1.77481 28.6165,-2.01559 l 27.5133,-0.2656 0.6173,-3.7344 c 0.8061,-4.87692 0.8026,-61.61346 0,-66.49472 l -0.6215,-3.7603 -44.1175,0.2603 -44.1175,0.26031 -0.263,34.79144 c -0.1727,22.84806 0.097,35.46379 0.7852,36.75 0.5765,1.07721 2.0448,1.96545 3.263,1.97387 3.4984,0.0242 4.9043,1.44502 4.5449,4.5932 -0.3024,2.64878 -0.6239,2.86455 -3.8301,2.57056 -1.925,-0.17651 -43.55,-0.55839 -92.5,-0.84863 -65.5482,-0.38865 -93.3252,-0.20239 -105.414,0.70685 -15.5414,1.16892 -16.4851,1.13742 -17.75,-0.5925 -0.7348,-1.00488 -1.336,-2.1589 -1.336,-2.56449 0,-1.9258 3.5031,-3.8803 6.9548,-3.8803 3.1078,0 3.9233,-0.41562 4.4149,-2.25 0.7759,-2.8951 0.7919,-64.54545 0.018,-67.43277 -0.5845,-2.17926 -0.6436,-2.18368 -36.73634,-2.74391 -19.88302,-0.30863 -61.01345,-0.82236 -91.40095,-1.14162 l -55.25,-0.58048 v 36.07439 36.07439 l 2.25,0.0153 c 3.5331,0.024 4.94054,1.43551 4.58008,4.5932 l -0.33468,2.8915 -10.85548,0.2849 c -10.85643,0.28493 -13.64452,-0.39673 -13.64452,-3.33592 0,-2.2094 2.9976,-4.44898 5.9548,-4.44898 2.07076,0 2.97087,-0.59306 3.41491,-2.25 0.78822,-2.94123 0.78571,-64.56807 -0.003,-67.51053 l -0.60573,-2.26054 -43.13062,0.26054 -43.13036,0.26053 -0.8527,13.5 c -0.46899,7.425 -0.91899,23.4 -1,35.5 l -0.1473,22 26.90004,0.5 c 25.75722,0.47876 26.93082,0.58497 27.62437,2.5 0.39838,1.1 0.31503,2.7875 -0.18523,3.75 -0.85018,1.63578 -4.65592,1.75 -58.30698,1.75 -56.15087,0 -57.41095,-0.0426 -58.02021,-1.96223 -0.34253,-1.07922 -0.13608,-2.87165 0.45879,-3.98317 1.03632,-1.93639 2.15777,-2.0321 26.8054,-2.28777 l 25.72382,-0.26683 0.92379,-11.5 c 0.50809,-6.325 0.95809,-22.28738 1,-35.47196 l 0.0762,-23.97195 -12.5,-1.27129 c -7.989,-0.8125 -24.04815,-1.1835 -44.5,-1.02804 l -32,0.24324 v 36.4863 c 0,35.71877 0.0421,36.49268 2,36.78894 6.32529,0.95711 6.63286,1.17687 6.3108,4.50907 l -0.3108,3.21569 -11.10153,0.28136 c -8.84453,0.22416 -11.35181,-0.0202 -12.33262,-1.20201 -1.79981,-2.16864 -0.34015,-5.47501 2.7508,-6.231 1.47584,-0.36096 3.01396,-1.14951 3.41804,-1.75232 1.00117,-1.49357 0.93812,-69.77557 -0.0659,-71.35715 -0.62779,-0.98894 -9.85102,-1.20476 -42.73469,-1 l -41.9341,0.26112 v 36.5 36.5 l 25.9001,0.5 c 24.75699,0.47793 25.93206,0.58827 26.62437,2.5 0.39835,1.1 0.31497,2.7875 -0.18529,3.75 -0.85018,1.63578 -4.65592,1.75 -58.30698,1.75 -56.15087,0 -57.41095,-0.0426 -58.02021,-1.96223 -0.34253,-1.07922 -0.13203,-2.87922 0.46779,-4 1.05496,-1.97121 1.95124,-2.03777 27.43877,-2.03777 h 26.34819 l 0.60297,-2.25 c 0.76469,-2.85341 0.79765,-66.52472 0.0359,-69.36267 -0.55029,-2.05016 -1.29703,-2.13581 -25.23635,-2.89457 -13.56808,-0.43004 -33.44426,-0.82934 -44.16926,-0.88733 l -19.5,-0.10543 v 37.43643 37.43643 l 3.14338,0.81454 c 3.59489,0.93153 4.81277,3.09175 3.31785,5.88504 -0.9206,1.72015 -2.18991,1.92756 -11.79641,1.92756 -10.62752,0 -13.16482,-0.69935 -13.16482,-3.62857 0,-2.14221 3.04159,-4.37143 5.96444,-4.37143 1.65042,0 3.07353,-0.65656 3.42857,-1.58179 0.91231,-2.37744 0.70025,-71.72306 -0.22378,-73.17863 -0.62831,-0.98974 -10.45037,-1.2045 -45.73469,-1 l -44.93454,0.26042 0.0999,22.5 c 0.0549,12.375 0.50493,28.8 1,36.5 l 0.90012,14 5.5,0.78006 c 3.025,0.42903 15.625,1.15634 28,1.61624 12.375,0.4599 22.56002,0.89637 22.63337,0.96994 0.70812,0.71019 0.96096,4.17212 0.37406,5.12174 -0.57287,0.92692 -19.01249,1.24673 -78.9526,1.36932 -76.94576,0.15737 -78.22408,0.19202 -79.38,2.15133 -0.64616,1.09525 -1.64448,3.79137 -2.21851,5.99137 -0.74631,2.86031 -1.63679,4.08639 -3.12535,4.30322 -2.54087,0.3701 -5.65539,-2.5154 -4.88422,-4.52506 0.30898,-0.80518 0.85227,-2.62138 1.20732,-4.03601 l 0.64555,-2.57205 -37.55624,0.66043 c -20.65592,0.36323 -38.24512,0.92478 -39.0871,1.24788 -2.11302,0.81083 -2.14984,1.62219 -5.64679,124.42159 -0.54034,18.975 -1.24863,43.4424 -1.57397,54.372 -0.3443,11.56698 -0.20891,20.25461 0.32398,20.7875 1.01296,1.01296 78.1118,1.30158 79.11967,0.29619 0.74848,-0.74664 1.7218,-38.54622 2.6121,-101.44317 0.452,-31.93198 1.00863,-46.90994 1.77779,-47.83671 0.75877,-0.91427 2.26599,-1.14885 4.67535,-0.72766 4.72953,0.82679 27.08712,2.19814 50.76157,3.11357 20.70024,0.80042 20.45217,0.72033 19.44868,6.27925 -0.36069,1.99806 -0.80579,2.23179 -3.03863,1.59566 -1.43882,-0.40992 -16.85461,-0.92399 -34.25731,-1.14239 l -31.64128,-0.39708 -0.61293,16.30142 c -0.63216,16.81262 -2.61496,107.19089 -2.60827,118.88812 l 0.004,6.58671 48.69285,0.66028 c 38.38302,0.52048 48.8605,0.39625 49.48468,-0.5867 0.91664,-1.44352 1.12617,-135.79199 0.21548,-138.1652 -0.33384,-0.86999 -1.68384,-1.58179 -3,-1.58179 -1.60719,0 -2.39749,-0.57467 -2.40666,-1.75 -0.008,-0.9625 -0.29046,-2.78338 -0.62877,-4.04641 -0.60576,-2.26147 -0.50287,-2.2919 6.76365,-2 l 7.37851,0.29641 0.5,74 0.5,74 h 91.5 91.5 l -0.14354,-47 c -0.0789,-25.85 -0.46361,-57.93746 -0.8548,-71.30546 -0.84583,-28.90447 -1.07322,-28.19454 9.03088,-28.19454 6.77813,0 9.10218,1.42482 7.99811,4.90344 -0.43405,1.36755 -1.96128,2.26185 -4.83262,2.82981 l -4.19803,0.8304 0.13637,41.46818 c 0.075,22.80749 0.52501,53.84317 1,68.96817 l 0.86363,27.5 118.06617,0.59764 c 64.93639,0.3287 133.68826,0.7787 152.78193,1 l 34.71576,0.40236 -0.029,-51 c -0.0159,-28.05 -0.32523,-59.8875 -0.68734,-70.75 l -0.65839,-19.75 h -137.2772 c -136.19329,0 -137.28219,-0.0157 -137.90914,-1.99105 -0.34756,-1.09508 -0.35133,-2.44508 -0.008,-3 1.00009,-1.61818 324.20643,-1.3783 324.78707,0.24105 0.24651,0.6875 0.0432,2.0375 -0.45185,3 -0.81334,1.5814 -2.89578,1.74996 -21.61487,1.7496 l -20.71482,-4e-4 0.2193,55.7504 c 0.12062,30.66272 0.50581,62.61943 0.85597,71.01491 l 0.63666,15.2645 30.14403,-0.2645 30.14372,-0.26451 0.77031,-20 c 0.42368,-11 1.09868,-44.3 1.5,-74 l 0.72969,-54 24.5,-1.18956 c 71.82129,-3.48719 78.97599,-3.64215 81.06049,-1.75571 1.7468,1.58083 1.9395,3.17358 1.9395,16.02883 0,11.64265 -0.2896,14.56323 -1.5714,15.84501 -1.898,1.898 -2.5504,1.94246 -4.7171,0.32143 -1.3692,-1.02442 -1.7195,-3.41561 -1.9411,-13.25 l -0.2704,-12 -14,0.14779 c -21.74778,0.22958 -67.49774,2.15252 -72.49999,3.04729 l -4.5,0.80492 -0.85972,28.5 c -0.47285,15.675 -0.92285,47.175 -1,70 l -0.14028,41.5 h 46.5 46.49999 l -0.071,-28 c -0.039,-15.4 -0.4419,-36.38663 -0.8954,-46.63697 -0.8077,-18.25369 -0.782,-18.65978 1.2484,-19.74641 1.6616,-0.88924 4.0676,-0.78224 5.4049,0.24037 0.1029,0.0786 0.5455,14.09301 0.9836,31.14301 0.438,17.05 1.0599,38.3125 1.3818,47.25 l 0.5852,16.25 h 87.8177 87.8177 l 0.701,-3.25 c 0.3856,-1.7875 1.103,-11.8 1.5942,-22.25 0.4911,-10.45 1.3579,-27.55 1.9262,-38 1.2564,-23.10477 2.8331,-53.79262 3.5966,-70 0.3109,-6.6 0.8749,-12.32234 1.2534,-12.71631 1.0714,-1.11519 5.1314,-1.0941 27.1556,0.14106 32.5262,1.82414 90.9957,4.72561 113.5,5.63229 7.15,0.28806 14.4891,0.75596 16.3092,1.03977 3.0323,0.47285 3.2832,0.78311 3,3.7096 l -0.3091,3.19359 -8,-0.0766 c -4.4,-0.0421 -17.9,-0.59497 -30,-1.22858 -12.1,-0.6336 -31.225,-1.60546 -42.5,-2.15968 -11.275,-0.55423 -29.05,-1.45979 -39.5,-2.01237 -10.45,-0.55258 -21.9883,-1.00876 -25.6406,-1.01375 l -6.6406,-0.009 -0.6642,3.75 c -0.3653,2.0625 -1.0859,12.075 -1.6014,22.25 -0.5156,10.175 -1.3931,27.05 -1.9501,37.5 -0.5571,10.45 -1.4922,28 -2.0782,39 -0.9459,17.75701 -1.1353,25.09069 -1.0524,40.75 0.012,2.3375 -0.066,7.84955 -0.175,12.24901 l -0.1975,7.999 4.5,0.81515 c 4.2576,0.77125 14.0711,1.26844 73.5,3.72375 40.4685,1.67196 68.3984,2.84366 94.5,3.96443 13.475,0.57859 34.85,1.46529 47.5,1.97044 12.65,0.50515 34.025,1.37545 47.5,1.934 13.475,0.55854 35.525,1.44974 49,1.98044 13.475,0.5307 30.5932,1.28864 38.0404,1.68432 7.4472,0.39568 15.6177,0.4079 18.1567,0.0272 l 4.6163,-0.69226 0.6146,-5.20272 c 0.338,-2.8615 1.055,-14.76522 1.5933,-26.45272 0.5383,-11.6875 1.424,-30.8125 1.9684,-42.5 0.5443,-11.6875 1.4087,-31.15 1.9209,-43.25 0.5123,-12.1 1.2524,-25.89076 1.6449,-30.64613 0.3924,-4.75538 0.4194,-9.81788 0.06,-11.25 -0.6225,-2.48045 -0.9725,-2.6046 -7.3845,-2.61918 -8.0447,-0.0183 -9.4991,-0.75556 -9.061,-4.5932 l 0.33,-2.89155 20.3721,-0.27109 c 21.1339,-0.28124 23.1279,0.0514 23.1279,3.85835 0,2.82378 -3.1554,3.91274 -11.3377,3.91274 h -7.4693 l -0.6421,5.25 c -0.3532,2.8875 -1.062,14.475 -1.5751,25.75 -1.4084,30.9438 -2.8115,60.98325 -4.0171,86 -0.5964,12.375 -1.1686,27.89479 -1.2715,34.48843 l -0.1872,11.98843 3,0.64326 c 1.65,0.35379 9.075,0.70418 16.5,0.77864 7.425,0.0745 23.625,0.58702 36,1.139 45.3663,2.02355 99.6035,4.18097 140.1363,5.57429 l 17.6362,0.60624 0.6367,-7.85914 c 0.7611,-9.3936 7.2694,-121.81755 8.2253,-142.08194 0.5544,-11.75349 0.4274,-14.2994 -0.7318,-14.66409 -1.3082,-0.41156 -17.0631,-1.30219 -90.4027,-5.11047 -15.95,-0.82823 -36.4927,-1.95514 -45.6504,-2.50426 -9.1577,-0.54911 -20.1827,-1.00528 -24.5,-1.0137 -4.3173,-0.008 -8.4564,-0.39985 -9.198,-0.86983 -1.7382,-1.10155 -1.0805,-4.61692 0.8621,-4.60816 0.8175,0.004 8.0113,0.35776 15.9863,0.78684 7.975,0.42907 36.325,1.89241 63,3.25186 26.675,1.35944 62.943,3.36787 80.5955,4.46316 17.6525,1.09529 34.8088,1.99144 38.125,1.99144 3.3162,0 7.4744,0.28899 9.2404,0.64219 3.2946,0.65891 4.9911,2.81935 3.4219,4.35758 -0.4962,0.48637 -7.8869,0.49046 -16.876,0.009 -8.7963,-0.4708 -16.1362,-0.71306 -16.3109,-0.53836 -0.1747,0.1747 -2.2891,34.22775 -4.6987,75.67344 -2.4096,41.4457 -4.577,78.12553 -4.8164,81.51074 l -0.4352,6.15493 3.6272,0.66781 c 1.995,0.3673 13.7522,1.08981 26.1272,1.60558 12.375,0.51577 33.3,1.3878 46.5,1.93784 13.2,0.55004 34.575,1.43078 47.5,1.9572 12.925,0.52642 25.2881,1.08416 27.4736,1.23942 3.8951,0.27671 3.9905,0.20325 4.8284,-3.71771 0.4702,-2.2 1.2675,-11.875 1.7718,-21.5 0.5043,-9.625 1.3531,-24.925 1.8862,-34 0.5332,-9.075 1.425,-24.825 1.9818,-35 2.4475,-44.72037 3.0026,-53.89142 3.6462,-60.23411 0.4542,-4.47634 0.3058,-7.18892 -0.4426,-8.09067 -1.2159,-1.46513 -19.3711,-2.38706 -70.1454,-3.562 l -26.5,-0.61322 -0.3006,-2.5856 c -0.5381,-4.62916 1.3395,-5.12348 16.9953,-4.47442 7.8679,0.32619 30.6347,0.92314 50.5929,1.32655 30.5848,0.6182 36.4434,0.96921 37.2789,2.23347 0.5451,0.825 0.7493,4.2 0.4537,7.5 -0.2956,3.3 -0.7996,12.35848 -1.1201,20.12995 l -0.5825,14.12994 3.8412,0.68701 c 4.9884,0.89219 77.1783,4.05372 77.5167,3.39482 0.097,-0.18795 0.434,-9.29386 0.75,-20.23536 0.5047,-17.47685 0.7871,-20.02743 2.3245,-20.99489 1.2749,-0.80228 2.2251,-0.80077 3.5,0.006 2.0126,1.27288 2.02,2.45792 0.3189,51.38298 -0.5641,16.225 -1.4594,43 -1.9896,59.5 -0.5303,16.5 -1.2745,35.95716 -1.654,43.23813 -0.4866,9.33778 -0.3553,13.64135 0.4459,14.6067 0.8422,1.01481 5.7233,1.53725 18.8823,2.02105 9.7606,0.35885 22.6965,0.86989 28.7465,1.13565 34.6493,1.52205 62.0223,2.66668 85.5,3.5753 14.575,0.56407 37.075,1.46718 50,2.0069 145.1994,6.06328 158.0527,6.44902 159.0877,4.77431 1.2383,-2.00354 1.8296,-8.72156 3.2988,-37.47784 0.734,-14.3659 1.6489,-26.6284 2.033,-27.25 0.8261,-1.33653 3.5243,-1.45192 5.4484,-0.233 1.1541,0.73111 1.0869,5.90467 -0.4295,33.09446 -1.7717,31.76536 -1.7698,32.24424 0.132,33.36811 1.163,0.68724 10.0739,1.40135 22.4296,1.7975 11.275,0.36149 29.5447,0.9752 40.5993,1.36379 18.6704,0.6563 20.1476,0.58089 20.7775,-1.06064 0.7847,-2.04495 2.0934,-22.77083 3.5966,-56.96042 0.5804,-13.2 1.3323,-29.01958 1.671,-35.15462 l 0.6157,-11.15462 -6.38,-0.63094 c -3.5091,-0.34701 -16.5051,-1.0599 -28.8801,-1.58419 -12.375,-0.5243 -28.6703,-1.21784 -36.2117,-1.54122 l -13.7117,-0.58795 -0.527,2.32677 c -0.2898,1.27972 -0.6446,4.57677 -0.7883,7.32677 -0.2406,4.60307 -0.4743,5.0246 -2.944,5.30993 -4.2075,0.48608 -5.2853,-2.56173 -3.9646,-11.21041 0.5963,-3.90474 1.3618,-13.62452 1.7011,-21.59952 1.8307,-43.03167 1.9088,-44.05321 3.4462,-45.06254 0.825,-0.54164 2.625,-0.73038 4,-0.41942 1.375,0.31096 4.75,0.79652 7.5,1.07902 7.6749,0.78842 9.2292,1.25486 9.8861,2.96675 1.7044,4.44161 -3.6632,6.80211 -9.9942,4.39509 -2.0528,-0.78049 -3.0404,-0.71791 -3.9451,0.25 -1.8041,1.93025 -3.4468,17.66483 -3.4468,33.01628 v 13.58972 l 5.75,0.57632 c 7.7108,0.77284 54.1117,2.83344 67.25,2.98648 l 10.5,0.1223 0.8663,-8.5 c 0.4765,-4.675 0.9265,-15.25 1,-23.5 l 0.1337,-15 -22.7248,-0.26871 c -21.4837,-0.25403 -22.7828,-0.37693 -23.7852,-2.25 -0.7486,-1.39875 -0.7457,-2.56933 0.01,-3.98129 1.0273,-1.91954 2.0938,-2 26.5095,-2 h 25.4391 l 1.6258,3.14389 c 1.5109,2.92177 1.4412,7.17846 -0.9867,60.25 -1.4369,31.40836 -3.057,64.59878 -3.6001,73.7565 -0.5432,9.15771 -0.9876,20.08135 -0.9876,24.27475 0,7.26412 0.1212,7.67044 2.5651,8.59961 1.4108,0.53639 11.6483,1.02849 22.75,1.09356 11.1017,0.0651 21.5349,0.4684 23.1849,0.89628 1.65,0.42789 8.393,0.71214 14.9845,0.63169 l 11.9846,-0.14628 0.843,-4 z M 2371.7488,312.87486 c -10.725,-0.40679 -32.1,-1.23597 -47.5,-1.84262 -15.4,-0.60666 -39.475,-1.55414 -53.5,-2.10552 -14.025,-0.55137 -36.3,-1.43557 -49.5,-1.96488 -13.2,-0.52931 -43.575,-1.67348 -67.5,-2.5426 -23.925,-0.86912 -44.0625,-1.769 -44.75,-1.99974 -1.3506,-0.45329 -1.7282,-4.08283 -0.5,-4.80565 0.7233,-0.42568 16.8865,0.0856 73.25,2.31728 14.575,0.57707 37.975,1.49382 52,2.03722 60.2215,2.33328 76.9803,2.98614 102.5,3.99303 14.85,0.58591 36.144,1.40709 47.32,1.82485 15.8025,0.59069 20.5141,1.07351 21.1928,2.17172 0.5234,0.84688 0.4464,1.92598 -0.1924,2.69571 -1.1581,1.3954 -1.7564,1.39943 -32.8204,0.2212 z m -830,-34.62616 c -3.025,-0.17519 -25.3,-1.45148 -49.5,-2.83618 -24.2,-1.38471 -50.3843,-2.95813 -58.1874,-3.49649 -7.8031,-0.53835 -17.7031,-1.02369 -22,-1.07851 -10.0038,-0.12764 -12.7274,-0.89321 -13.1322,-3.69131 -0.2914,-2.01493 0.1039,-2.21091 4.5,-2.23069 4.7486,-0.0214 139.0365,7.54911 152.9926,8.62494 6.9779,0.53791 9.3614,1.91407 7.7712,4.48698 -0.5278,0.85402 -9.9199,0.94661 -22.4442,0.22126 z M 432.04263,259.99669 c -24.10921,-0.40305 -34.55172,-0.91739 -35.37678,-1.74245 -0.67416,-0.67416 -0.89819,-2.25602 -0.52824,-3.73 l 0.64236,-2.55939 19.73442,0.47809 c 10.85393,0.26295 37.50942,0.70508 59.23442,0.98251 35.09851,0.44822 39.63497,0.68738 40.71125,2.14623 0.84334,1.1431 0.90859,2.20734 0.21482,3.50366 -0.93476,1.74662 -2.52614,1.85045 -25.71125,1.67753 -13.59315,-0.10139 -40.1076,-0.44167 -58.921,-0.75618 z m 539.2901,-61.80949 c -0.41218,-0.4125 -22.87468,-0.975 -49.91667,-1.25 l -49.16725,-0.5 v -4 -4 l 14.5,0.39431 c 7.975,0.21687 33.4,0.66687 56.5,1 l 42,0.60569 0.33579,2.95069 c 0.22339,1.96306 -0.25896,3.38557 -1.44113,4.25 -1.8973,1.38734 -11.55939,1.80164 -12.81074,0.54931 z m 1096.72857,260.25 c 1.0661,-7.87258 2.8015,-59.64004 3.0171,-90 l 0.1704,-24 -8,-0.72163 c -4.4,-0.39689 -18.125,-1.17944 -30.5,-1.73899 -12.375,-0.55954 -26.8638,-1.30739 -32.1974,-1.66188 -11.5465,-0.76741 -10.5217,-2.37089 -11.2623,17.6225 -0.4783,12.91576 -1.0929,24.30131 -3.5891,66.5 -0.6182,10.45 -1.1976,22.825 -1.2876,27.5 l -0.1636,8.5 13.5,0.69493 c 7.425,0.38222 24.8252,1.05722 38.6671,1.5 13.8419,0.44279 25.5233,1.16155 25.9588,1.59725 0.4355,0.4357 1.7103,0.6607 2.8329,0.5 1.6853,-0.24123 2.1829,-1.33838 2.8537,-6.29218 z"
     style="fill:#000000" />
</svg>
